<svg xmlns="http://www.w3.org/2000/svg" viewBox="0 0 1200 900" width="1200" height="900">
  <rect width="1200" height="900" fill="#F3EFEA"/>
  <circle cx="600" cy="450" r="300" fill="#EAE3DB"/>
  <path d="M348 600 A 252 236 0 0 1 852 600 Z" fill="#D4A373"/>
  <path d="M348 600 A 252 236 0 0 1 852 600 Z" fill="none" stroke="#8B4527" stroke-width="12" stroke-opacity="0.3"/>
  <path d="M 450 450.84 q 10 37.0 2 74" fill="none" stroke="#8B4527" stroke-width="13" stroke-opacity="0.42" stroke-linecap="round"/><path d="M 522 444.72 q 10 46.0 2 92" fill="none" stroke="#8B4527" stroke-width="13" stroke-opacity="0.42" stroke-linecap="round"/><path d="M 600 442.0 q 10 50.0 2 100" fill="none" stroke="#8B4527" stroke-width="13" stroke-opacity="0.42" stroke-linecap="round"/><path d="M 678 444.72 q 10 46.0 2 92" fill="none" stroke="#8B4527" stroke-width="13" stroke-opacity="0.42" stroke-linecap="round"/><path d="M 750 450.84 q 10 37.0 2 74" fill="none" stroke="#8B4527" stroke-width="13" stroke-opacity="0.42" stroke-linecap="round"/>
  <rect x="348" y="588" width="504" height="24" rx="12" fill="#C08A5A"/>
  <circle cx="372" cy="600" r="17" fill="#8B4527" fill-opacity="0.32"/><circle cx="429" cy="600" r="17" fill="#8B4527" fill-opacity="0.32"/><circle cx="486" cy="600" r="17" fill="#8B4527" fill-opacity="0.32"/><circle cx="543" cy="600" r="17" fill="#8B4527" fill-opacity="0.32"/><circle cx="600" cy="600" r="17" fill="#8B4527" fill-opacity="0.32"/><circle cx="657" cy="600" r="17" fill="#8B4527" fill-opacity="0.32"/><circle cx="714" cy="600" r="17" fill="#8B4527" fill-opacity="0.32"/><circle cx="771" cy="600" r="17" fill="#8B4527" fill-opacity="0.32"/><circle cx="828" cy="600" r="17" fill="#8B4527" fill-opacity="0.32"/>
</svg>